<svg width="143" height="46" viewBox="0 0 143 46" fill="none" xmlns="http://www.w3.org/2000/svg">
<path d="M35.7979 21.1565V3.54103H43.9184C45.8507 3.54103 47.3416 3.94914 48.391 4.76536C49.4404 5.58158 49.9651 6.69764 49.9651 8.11354C49.9651 9.16297 49.6487 10.0542 49.0157 10.7871C48.3993 11.52 47.5498 12.0114 46.467 12.2613V11.8615C47.733 12.0781 48.7075 12.5611 49.3905 13.3107C50.0901 14.0437 50.4399 15.0015 50.4399 16.1842C50.4399 17.75 49.8819 18.9743 48.7658 19.8572C47.6664 20.7234 46.1422 21.1565 44.1933 21.1565H35.7979ZM39.5208 18.258H43.7185C44.6847 18.258 45.4259 18.0748 45.9423 17.7083C46.4587 17.3419 46.7169 16.7588 46.7169 15.9593C46.7169 15.1431 46.4587 14.56 45.9423 14.2102C45.4259 13.8438 44.6847 13.6605 43.7185 13.6605H39.5208V18.258ZM39.5208 10.7871H43.2188C44.2349 10.7871 44.9845 10.6039 45.4676 10.2374C45.9507 9.87092 46.1922 9.32122 46.1922 8.58828C46.1922 7.87201 45.9507 7.33063 45.4676 6.96417C44.9845 6.5977 44.2349 6.41447 43.2188 6.41447H39.5208V10.7871Z" fill="#2F281C"/>
<path d="M59.3173 21.4313C57.1185 21.4313 55.4027 20.84 54.1701 19.6573C52.9374 18.4746 52.3211 16.8671 52.3211 14.8349C52.3211 13.5189 52.5793 12.3696 53.0957 11.3868C53.6287 10.404 54.3616 9.63771 55.2945 9.08801C56.244 8.52165 57.3517 8.23847 58.6177 8.23847C59.867 8.23847 60.9081 8.505 61.741 9.03804C62.5905 9.57108 63.2235 10.3207 63.6399 11.2868C64.073 12.2363 64.2896 13.344 64.2896 14.61V15.4845H55.4194V13.6106H61.5411L61.1163 13.9604C61.1163 12.9109 60.8998 12.1197 60.4667 11.5867C60.0502 11.037 59.4422 10.7621 58.6427 10.7621C57.7598 10.7621 57.0768 11.0869 56.5938 11.7366C56.1274 12.3862 55.8941 13.319 55.8941 14.5351V14.9348C55.8941 16.1675 56.194 17.0837 56.7937 17.6833C57.41 18.283 58.2928 18.5828 59.4422 18.5828C60.1252 18.5828 60.7665 18.4996 61.3662 18.333C61.9825 18.1498 62.5655 17.8666 63.1152 17.4834L64.1647 19.9821C63.5317 20.4485 62.7987 20.8066 61.9658 21.0565C61.1496 21.3064 60.2668 21.4313 59.3173 21.4313Z" fill="#2F281C"/>
<path d="M71.6057 21.4313C70.5063 21.4313 69.5402 21.1648 68.7073 20.6317C67.8744 20.0987 67.2248 19.3408 66.7584 18.358C66.2919 17.3752 66.0587 16.1925 66.0587 14.8099C66.0587 13.444 66.2919 12.2696 66.7584 11.2868C67.2248 10.304 67.8744 9.55443 68.7073 9.03804C69.5402 8.505 70.5063 8.23847 71.6057 8.23847C72.6218 8.23847 73.5297 8.48834 74.3292 8.98807C75.1455 9.47114 75.6785 10.1291 75.9284 10.962H75.6535L75.9534 8.48834H79.5764C79.5264 9.03804 79.4764 9.59607 79.4265 10.1624C79.3932 10.7121 79.3765 11.2535 79.3765 11.7865V21.1565H75.6285L75.6035 18.7827H75.9034C75.6369 19.5823 75.1038 20.2236 74.3043 20.7067C73.5047 21.1898 72.6052 21.4313 71.6057 21.4313ZM72.7551 18.5828C73.6213 18.5828 74.3209 18.2747 74.854 17.6584C75.387 17.042 75.6535 16.0925 75.6535 14.8099C75.6535 13.5273 75.387 12.5861 74.854 11.9864C74.3209 11.3868 73.6213 11.0869 72.7551 11.0869C71.8889 11.0869 71.1893 11.3868 70.6562 11.9864C70.1232 12.5861 69.8567 13.5273 69.8567 14.8099C69.8567 16.0925 70.1149 17.042 70.6313 17.6584C71.1643 18.2747 71.8722 18.5828 72.7551 18.5828Z" fill="#2F281C"/>
<path d="M87.0682 21.4313C85.4857 21.4313 84.3114 20.9982 83.5451 20.132C82.7789 19.2492 82.3957 17.9165 82.3957 16.1342V8.48834H86.1687V16.1342C86.1687 16.9337 86.3269 17.5251 86.6434 17.9082C86.9766 18.2913 87.4846 18.4829 88.1676 18.4829C88.9172 18.4829 89.5335 18.2247 90.0166 17.7083C90.5163 17.1753 90.7662 16.4673 90.7662 15.5845V8.48834H94.5391V21.1565H90.8661V18.7328H91.216C90.8328 19.5823 90.2831 20.2486 89.5669 20.7317C88.8672 21.1981 88.0343 21.4313 87.0682 21.4313Z" fill="#2F281C"/>
<path d="M103.57 21.4313C101.921 21.4313 100.68 21.0232 99.8468 20.207C99.0139 19.3741 98.5975 18.1331 98.5975 16.484V11.3118H96.1988V8.48834H98.5975V5.39002L102.37 4.46552V8.48834H105.619V11.3118H102.37V16.2841C102.37 17.0837 102.537 17.6334 102.87 17.9332C103.203 18.233 103.628 18.383 104.144 18.383C104.461 18.383 104.719 18.3663 104.919 18.333C105.136 18.283 105.36 18.2164 105.594 18.1331V21.0565C105.277 21.1898 104.944 21.2814 104.594 21.3314C104.244 21.398 103.903 21.4313 103.57 21.4313Z" fill="#2F281C"/>
<path d="M107.555 21.1565V8.48834H111.328V21.1565H107.555ZM107.405 6.41447V2.89138H111.453V6.41447H107.405Z" fill="#2F281C"/>
<path d="M115.361 21.1565V11.3118H112.962V8.48834H116.435L115.361 9.46281V7.6388C115.361 5.9897 115.786 4.7487 116.635 3.91582C117.501 3.08294 118.792 2.6665 120.508 2.6665C120.891 2.6665 121.299 2.69149 121.732 2.74146C122.182 2.79144 122.574 2.89138 122.907 3.0413V5.93972C122.674 5.85644 122.407 5.79813 122.107 5.76482C121.807 5.71485 121.516 5.68986 121.233 5.68986C120.85 5.68986 120.491 5.75649 120.158 5.88975C119.842 6.02301 119.584 6.24789 119.384 6.56438C119.2 6.86422 119.109 7.27233 119.109 7.78872V9.113L118.584 8.48834H122.307V11.3118H119.134V21.1565H115.361Z" fill="#2F281C"/>
<path d="M128.647 21.4313C127.065 21.4313 125.89 20.9982 125.124 20.132C124.358 19.2492 123.975 17.9165 123.975 16.1342V8.48834H127.748V16.1342C127.748 16.9337 127.906 17.5251 128.222 17.9082C128.556 18.2913 129.064 18.4829 129.747 18.4829C130.496 18.4829 131.112 18.2247 131.596 17.7083C132.095 17.1753 132.345 16.4673 132.345 15.5845V8.48834H136.118V21.1565H132.445V18.7328H132.795C132.412 19.5823 131.862 20.2486 131.146 20.7317C130.446 21.1981 129.613 21.4313 128.647 21.4313Z" fill="#2F281C"/>
<path d="M139.227 21.1565V2.76645H143V21.1565H139.227Z" fill="#2F281C"/>
<path d="M35.7979 44.575V26.9596H43.9184C45.8507 26.9596 47.3416 27.3677 48.391 28.1839C49.4404 29.0002 49.9651 30.1162 49.9651 31.5321C49.9651 32.5815 49.6487 33.4727 49.0157 34.2057C48.3993 34.9386 47.5498 35.43 46.467 35.6799V35.2801C47.733 35.4966 48.7075 35.9797 49.3905 36.7293C50.0901 37.4622 50.4399 38.42 50.4399 39.6027C50.4399 41.1685 49.8819 42.3929 48.7658 43.2757C47.6664 44.1419 46.1422 44.575 44.1933 44.575H35.7979ZM39.5208 41.6766H43.7185C44.6847 41.6766 45.4259 41.4934 45.9423 41.1269C46.4587 40.7604 46.7169 40.1774 46.7169 39.3778C46.7169 38.5616 46.4587 37.9786 45.9423 37.6288C45.4259 37.2623 44.6847 37.0791 43.7185 37.0791H39.5208V41.6766ZM39.5208 34.2057H43.2188C44.2349 34.2057 44.9845 34.0224 45.4676 33.656C45.9507 33.2895 46.1922 32.7398 46.1922 32.0069C46.1922 31.2906 45.9507 30.7492 45.4676 30.3827C44.9845 30.0163 44.2349 29.833 43.2188 29.833H39.5208V34.2057Z" fill="#2F281C"/>
<path d="M52.9208 44.575V35.2551C52.9208 34.7054 52.9041 34.1474 52.8708 33.581C52.8541 33.0146 52.8125 32.4566 52.7459 31.9069H56.3689L56.7937 35.6049H56.219C56.3855 34.7054 56.6521 33.9641 57.0185 33.3811C57.4017 32.7981 57.8681 32.365 58.4178 32.0818C58.9841 31.7986 59.6255 31.657 60.3417 31.657C60.6582 31.657 60.9081 31.6737 61.0913 31.707C61.2746 31.7237 61.4578 31.7653 61.641 31.832L61.616 35.1551C61.2662 35.0052 60.9664 34.9136 60.7165 34.8803C60.4833 34.8303 60.1835 34.8053 59.817 34.8053C59.1174 34.8053 58.5344 34.9386 58.068 35.2051C57.6182 35.4716 57.2767 35.8631 57.0435 36.3795C56.827 36.8959 56.7187 37.5205 56.7187 38.2535V44.575H52.9208Z" fill="#2F281C"/>
<path d="M68.0188 44.8499C66.9194 44.8499 65.9533 44.5834 65.1204 44.0503C64.2875 43.5173 63.6379 42.7593 63.1714 41.7765C62.705 40.7937 62.4718 39.6111 62.4718 38.2285C62.4718 36.8625 62.705 35.6882 63.1714 34.7054C63.6379 33.7226 64.2875 32.973 65.1204 32.4566C65.9533 31.9236 66.9194 31.657 68.0188 31.657C69.0349 31.657 69.9428 31.9069 70.7423 32.4066C71.5585 32.8897 72.0916 33.5477 72.3415 34.3806H72.0666L72.3664 31.9069H75.9895C75.9395 32.4566 75.8895 33.0146 75.8396 33.581C75.8062 34.1307 75.7896 34.6721 75.7896 35.2051V44.575H72.0416L72.0166 42.2013H72.3165C72.0499 43.0009 71.5169 43.6422 70.7173 44.1253C69.9178 44.6083 69.0183 44.8499 68.0188 44.8499ZM69.1682 42.0014C70.0344 42.0014 70.734 41.6933 71.267 41.0769C71.8001 40.4606 72.0666 39.5111 72.0666 38.2285C72.0666 36.9458 71.8001 36.0047 71.267 35.405C70.734 34.8053 70.0344 34.5055 69.1682 34.5055C68.302 34.5055 67.6024 34.8053 67.0693 35.405C66.5363 36.0047 66.2698 36.9458 66.2698 38.2285C66.2698 39.5111 66.528 40.4606 67.0443 41.0769C67.5774 41.6933 68.2853 42.0014 69.1682 42.0014Z" fill="#2F281C"/>
<path d="M78.8838 44.575V31.9069H82.6567V44.575H78.8838ZM78.7339 29.833V26.31H82.7817V29.833H78.7339Z" fill="#2F281C"/>
<path d="M85.7404 44.575V35.2051C85.7404 34.6721 85.7238 34.1307 85.6904 33.581C85.6571 33.0146 85.6072 32.4566 85.5405 31.9069H89.1636L89.4384 34.2556H89.1386C89.555 33.4228 90.1464 32.7814 90.9126 32.3317C91.6789 31.8819 92.57 31.657 93.5862 31.657C95.0687 31.657 96.1764 32.0901 96.9093 32.9563C97.6589 33.8059 98.0337 35.1302 98.0337 36.9292V44.575H94.2608V37.1041C94.2608 36.1879 94.0942 35.5383 93.7611 35.1551C93.4279 34.772 92.9282 34.5805 92.2619 34.5805C91.429 34.5805 90.7627 34.847 90.263 35.38C89.7632 35.8964 89.5134 36.596 89.5134 37.4789V44.575H85.7404Z" fill="#2F281C"/>
<path d="M10.1419 44.6845C10.1165 42.3007 10.399 40.6485 11.1375 38.3754C11.4555 37.3962 11.8446 36.4288 12.3673 35.5393C12.9585 34.533 13.7164 33.6079 14.4269 32.6836C14.9699 31.9775 15.5324 31.285 16.138 30.6322C16.0162 30.5265 15.886 30.4309 15.7473 30.3455C15.3852 30.1231 14.9953 29.9743 14.5749 29.9083C13.9135 29.8052 13.2512 29.6792 12.5805 29.6597C10.6579 29.6048 8.05099 29.872 6.74755 28.1038C5.44242 26.3339 5.77738 23.8419 5.60314 21.782C5.52532 20.8645 5.29187 19.9538 4.27348 19.7678C3.48854 19.6248 2.65116 19.7001 1.88822 19.4371C1.24876 19.2164 1.03138 18.5002 1.00516 17.8888C0.961177 16.8563 1.20562 15.8137 1.46107 14.8201C1.92966 12.9961 2.58434 11.255 3.14767 9.46229C3.71015 7.63492 4.60505 5.8752 6.15124 4.69134C7.46144 3.68845 9.11928 3.03394 10.7399 2.76673C12.9112 2.40819 15.2068 2.3676 17.3797 2.73883C19.3598 3.07792 21.3223 3.87871 22.8854 5.16489C24.3554 6.37411 25.6491 9.18465 25.825 9.9208C26.0244 10.7558 26.4863 12.6485 26.4863 14.1538C26.4846 15.1474 26.237 16.9121 26.0467 17.8888C25.8268 19.016 25.4566 19.9834 25.0523 21.0632C24.2133 23.305 22.4903 25.1907 20.7707 26.8066C19.3911 28.103 17.9228 29.2919 16.6016 30.6389C17.3214 31.3729 17.79 32.3682 18.1055 33.3441C19.3869 37.31 19.0528 40.5824 19.0503 44.6845" stroke="#2F281C" stroke-width="1.85332" stroke-linecap="round"/>
<path fill-rule="evenodd" clip-rule="evenodd" d="M22.0887 15.3313C25.6238 15.3313 28.581 12.3654 28.581 8.59231C28.581 4.8192 25.6238 1.85332 22.0887 1.85332C18.5537 1.85332 15.5965 4.8192 15.5965 8.59231C15.5965 12.3654 18.5537 15.3313 22.0887 15.3313ZM22.0887 17.1846C26.6979 17.1846 30.4343 13.3377 30.4343 8.59231C30.4343 3.84691 26.6979 0 22.0887 0C17.4796 0 13.7432 3.84691 13.7432 8.59231C13.7432 13.3377 17.4796 17.1846 22.0887 17.1846Z" fill="#2F281C"/>
</svg>
